<svg xmlns="http://www.w3.org/2000/svg" width="175.372" height="43.992" viewBox="0 0 175.372 43.992">
  <g id="Group_20" data-name="Group 20" transform="translate(-401.946 -9.975)">
    <path id="Path_2673" data-name="Path 2673" d="M435.129,271.712a3.342,3.342,0,0,1,.783-.754,10.2,10.2,0,0,1,5.9-1.619,3.621,3.621,0,0,1,3.226,1.99,7.137,7.137,0,0,1,2.826-1.056c1.044-.22,2.112-.383,3.168-.528.952-.128,1.9-.244,2.855-.342.661-.064,1.375-.145,2.037-.145a16.172,16.172,0,0,1,2.414.267,1.382,1.382,0,0,1,.366.081,13.12,13.12,0,0,1,2.8,1.126,3.278,3.278,0,0,1,.487.308,7.277,7.277,0,0,1,3.232,6.145,7.794,7.794,0,0,1-.412,2.9,9.865,9.865,0,0,1-1.59,3.006c-.075.1-.139.18-.221.273a13.16,13.16,0,0,1-7.253,4.4v.3a4.01,4.01,0,0,1-2.977,3.754,10.879,10.879,0,0,1-1.874.5,15.506,15.506,0,0,1-2.379.226,3.423,3.423,0,0,1-2.379-.911,8,8,0,0,1-2.692.7h-.093a3.308,3.308,0,0,1-2.75-1.248,3.875,3.875,0,0,1-4.6.83c-.418-.064-2.042-.232-2.46-.273a3.538,3.538,0,0,1-.708-.122,3.9,3.9,0,0,1-4.456.348,16.5,16.5,0,0,1-1.944-1.381,3.7,3.7,0,0,1-2.46,1.242,8.706,8.706,0,0,0-1.915.47l-.215.075a3.708,3.708,0,0,1-3.482-.621,18.293,18.293,0,0,1-3.157.621,3.478,3.478,0,0,1-.58,0,11.059,11.059,0,0,1-5.843-1.358,3.535,3.535,0,0,1-.313-.2l-.255-.18a13.084,13.084,0,0,1-1.427.783,9.453,9.453,0,0,1-3.412,1.015h-.093a3.255,3.255,0,0,1-2.75-1.236,3.621,3.621,0,0,1-4.224.917l-.168-.081c-.215-.046-.458-.081-.656-.11-.511-.075-1.033-.133-1.549-.18a3.6,3.6,0,0,1-2.658-1.451,3.482,3.482,0,0,1-1.625,1.741,10.855,10.855,0,0,1-3.255.841c-.714.11-1.422.2-2.135.29a3.481,3.481,0,0,1-3.1-1.16,6.546,6.546,0,0,1-1.921.406h-.1a3.244,3.244,0,0,1-2.745-1.236,3.627,3.627,0,0,1-4.224.917l-.174-.081c-.215-.046-.458-.081-.656-.11-.482-.07-.963-.122-1.451-.168a3.557,3.557,0,0,1-1.5,1.16,11.563,11.563,0,0,1-3.087.441,21.7,21.7,0,0,1-3.545-.07c-.772-.238-1.445-.348-1.892-.975l-1.3.133-.128.186a6.226,6.226,0,0,1-5.744.3l-.232.041a3.6,3.6,0,0,1-2.663-.447,3.534,3.534,0,0,1-.493-.371,6.327,6.327,0,0,1-1.514.273h-.093a3.255,3.255,0,0,1-2.75-1.236,3.627,3.627,0,0,1-4.224.917l-.174-.081c-.215-.046-.453-.081-.65-.11-.516-.075-1.033-.133-1.549-.18a3.939,3.939,0,0,1-.7-.116c-.116.035-.232.075-.354.1-.47.133-.952.232-1.427.331a13.863,13.863,0,0,1-2.385.325h-.052a3.644,3.644,0,0,1-2.646-1c-.58.174-1.16.3-1.712.418a7.085,7.085,0,0,1-3.586.22,3.725,3.725,0,0,1-2.832.128l-.133-.046a9.284,9.284,0,0,0-2.2-.406,3.679,3.679,0,0,1-3.482-4.613,10.1,10.1,0,0,0,.162-1.1v-.122c.261-1.741.58-3.51.917-5.263a.985.985,0,0,1,0-.128c.116-.522.226-1.056.348-1.578.2-.853.424-1.7.656-2.542.284-1.044.615-2.112.876-3.162a3.482,3.482,0,0,1,1.967-2.489,18.788,18.788,0,0,1,4.143-1.213,3.647,3.647,0,0,1,.661-.064h.209a3.545,3.545,0,0,1,2.524,1.044,3.708,3.708,0,0,1,2.605-1.044,13.566,13.566,0,0,1,4.816,1.207,3.511,3.511,0,0,1,2.112,3.342v.162a9.335,9.335,0,0,1,.836-2.1,3.423,3.423,0,0,1,.946-.992,10.213,10.213,0,0,1,5.9-1.619,3.661,3.661,0,0,1,3.342,2.217,6.724,6.724,0,0,1,.279.743c.128.412.244.836.348,1.253.128.511.244,1.027.366,1.532a11.02,11.02,0,0,0,.337,1.306c.418.807.72,2.2,1.01,2.576.54,1.189,2.048-1.039,2.634-2V276.9c.151-.331.29-.685.418-1.015s.313-.749.447-1.126l.395-1.712a4.822,4.822,0,0,1,3.4-3.7,8.812,8.812,0,0,1,1.915-.174l2.379-.07c.783,0,1.561-.041,2.321-.046a9.823,9.823,0,0,1,1.8.07,3.136,3.136,0,0,1,2.942,3.209,4.314,4.314,0,0,1,.238-.429,3.423,3.423,0,0,1,.946-.992,10.184,10.184,0,0,1,5.9-1.619,3.644,3.644,0,0,1,3.319,2.182,7.25,7.25,0,0,1,3.951-1.317c1.485-.209,2.982-.366,4.474-.511,1.108-.1,2.222-.2,3.331-.273.882-.058,1.776-.116,2.658-.116a3.58,3.58,0,0,1,2.211.749,11.645,11.645,0,0,1,4.2-.714,3.661,3.661,0,0,1,3.342,2.217,6.73,6.73,0,0,1,.279.743c.133.412.244.836.348,1.253s.18.754.273,1.126a15.018,15.018,0,0,1,.963-1.161l.133-.139a12.3,12.3,0,0,1,9.342-4.062h.093a4.126,4.126,0,0,1,2.9,1.091c.476-.162.957-.29,1.416-.424a10.781,10.781,0,0,1,2.64-.58h.07a3.539,3.539,0,0,1,2.9,1.456,19.664,19.664,0,0,1,1.9-1.271,3.4,3.4,0,0,1,1.8-.487h.157a4.207,4.207,0,0,1,3.174,1.584,5.228,5.228,0,0,0,.447.354c.313.226.615.453.911.7Z" transform="translate(111.951 -253.279)" fill="#fefefe" fill-rule="evenodd"/>
    <path id="Path_2674" data-name="Path 2674" d="M550.212,275.55a14.236,14.236,0,0,1,1.839.226,8.866,8.866,0,0,1,2.077.841,4.859,4.859,0,0,1,.911.772,4.52,4.52,0,0,1,.911,2.82,4.451,4.451,0,0,1-.273,1.613,6.381,6.381,0,0,1-1.05,1.909,10.169,10.169,0,0,1-7.154,3.627h-.632l-.1.1v.07l-.3,3.064v.22c0,.609-2.988.917-3.661.917l-.1-.11v-.342c.406-3.685.354-7.677.807-11.228,0-.07,0-.081-.1-.07a14.051,14.051,0,0,0-1.909.5.128.128,0,0,1-.133-.133l.07-3.151-.035-.2c.418-.58,7.746-1.445,8.837-1.445Zm-2.9,3.835q0,1.834-.174,3.864v.07l.07.07h.226a6.859,6.859,0,0,0,2.454-.841c1.219-.7,1.874-1.311,1.874-2.716a1.259,1.259,0,0,0-.58-.911c-.772-.615-3.052-.429-3.853-.1Z" transform="translate(17.658 -256.009)" fill="#de0056"/>
    <path id="Path_2675" data-name="Path 2675" d="M443.807,275.619c.058,0,.087.046.087.133a16.9,16.9,0,0,0-.534,3.168c0,.232-.1.29-.261.29a56.3,56.3,0,0,0-6.383,1.1s-.441,4.886-.464,5.449q-.209,2.75-.209,5.8a25.474,25.474,0,0,1-4.16.737l-.07-.139.209-1.613a57.573,57.573,0,0,0,.789-8.251c.046-.621.041-1.079.139-1.689l-.035-.035s-1.259.412-1.393.447-.25,0-.244-.064c0-1.23.5-2.663.5-4.062.232-.4,9.284-1.306,12.034-1.306Z" transform="translate(63.856 -256.026)" fill="#5b90ca"/>
    <path id="Path_2676" data-name="Path 2676" d="M361.742,275.7a16.135,16.135,0,0,1,.876,3.04c.482,1.909.992,3.818,1.6,5.692.058.2.157.29.307.29l.708.07c.1,0,.139.035.133.1v.261a10.988,10.988,0,0,1-.238,1.973l.238.928c.29.795.447,1.259.778,2.031l.035.035v.035a9.526,9.526,0,0,1-1.323.754,7.026,7.026,0,0,1-1.99.679c-.215,0-1.056-3.888-1.3-4.062-1.126,0-2.257.029-3.383.07l-.244,1.207-.464,2.681c0,.064-.041.145-.139.1-.371-.371-3.168-.632-3.557-.667-.058,0-.081-.029-.064-.087,0-.2.714-2.234.841-2.7v-.116a2.739,2.739,0,0,0-.812.151.133.133,0,0,1-.1,0s-.7-3.093-.7-3.319.8-.238,2.391-.238c.261,0,.325-.064.395-.528s1.938-7.009,2.182-7.4a6.841,6.841,0,0,1,3.835-.963Zm-1.892,4.363-.191.795L358.818,284q0,.07.1.07l1.839.035q.052,0,.035-.07l-.772-3.835c0-.1,0-.133-.058-.157a.181.181,0,0,0-.116,0Z" transform="translate(96.74 -256.072)" fill="#f59900"/>
    <path id="Path_2677" data-name="Path 2677" d="M329.14,275.7h.209c.081,0,.139.458.168,1.375.052,1.079.215,2.745.5,5,0,.046.7,4,.917,4.642a.029.029,0,0,0,.052,0c.058-.11.685-2.733.789-3.11.673-2.768,1.665-5.187,2.541-7.793a.128.128,0,0,1,.139-.1,10.525,10.525,0,0,1,3.383.894,41.251,41.251,0,0,0,.139,6.325,40.218,40.218,0,0,0,1.16,6.777c.058.22.116.447.168.667l.07.412c0,.226-2.953.76-3.389.76h-.133c-.116,0-.145-.046-.139-.139,0-.952-.232-1.845-.36-3.075a50.184,50.184,0,0,1-.447-5.8c0-.087.064-.464-.07-.464-.789,2.5-1.828,6.963-2.286,8.53a20.362,20.362,0,0,1-3.482.754,59.5,59.5,0,0,1-1.584-8.013V283.1c0-.07-.035-.1-.052-.07a31.34,31.34,0,0,0-.65,3.731c-.145,1.66-.25,3.006-.261,4.729,0,.058-.087.064-.174.035a12.667,12.667,0,0,0-3.435-.685c-.116,0-.139-.081-.1-.2a13.775,13.775,0,0,0,.244-1.549c.261-1.741.58-3.4.894-5.141.11-.516.226-1.033.342-1.549.429-1.839,1.514-5.576,1.543-5.773a18.285,18.285,0,0,1,3.284-.928Z" transform="translate(109.393 -256.072)" fill="#df2624"/>
    <path id="Path_2678" data-name="Path 2678" d="M415.942,275.7a17.053,17.053,0,0,1,.876,3.04c.482,1.909.992,3.818,1.6,5.692.058.2.162.29.308.29l.708.07c.1,0,.139.035.139.1v.261a10.481,10.481,0,0,1-.244,1.973l.244.928c.284.795.441,1.259.772,2.031l.035.035v.035a8.891,8.891,0,0,1-1.323.754,6.963,6.963,0,0,1-1.99.679c-.209,0-1.056-3.888-1.294-4.062-1.132,0-2.257.029-3.389.07l-.238,1.207-.464,2.681c0,.064-.041.145-.139.1-.371-.371-3.168-.632-3.557-.667q-.087,0-.07-.087c0-.2.714-2.234.841-2.7v-.116a2.676,2.676,0,0,0-.807.151.128.128,0,0,1-.1,0s-.7-3.093-.7-3.319.795-.238,2.391-.238c.261,0,.319-.064.389-.528s1.938-7.009,2.188-7.4a6.83,6.83,0,0,1,3.835-.963Zm-1.921,4.363-.186.795L413.018,284q0,.07.1.07l1.839.035q.052,0,.035-.07l-.778-3.835c0-.1,0-.133-.052-.157a.2.2,0,0,0-.122,0Z" transform="translate(73.989 -256.072)" fill="#007731"/>
    <path id="Path_2679" data-name="Path 2679" d="M457.542,275.7a16.552,16.552,0,0,1,.882,3.04c.482,1.909.986,3.818,1.6,5.692.058.2.157.29.308.29l.708.07c.1,0,.139.035.133.1v.261a10.991,10.991,0,0,1-.238,1.973l.238.928c.29.795.447,1.259.778,2.031l.035.035v.035a8.89,8.89,0,0,1-1.323.754,7.026,7.026,0,0,1-1.99.679c-.209,0-1.056-3.888-1.294-4.062-1.131,0-2.263.029-3.389.07l-.244,1.207-.458,2.681c0,.064-.041.145-.139.1-.377-.371-3.174-.632-3.563-.667-.052,0-.081-.029-.064-.087,0-.2.714-2.234.841-2.7v-.116a2.79,2.79,0,0,0-.812.151.116.116,0,0,1-.1,0s-.708-3.093-.708-3.319.8-.238,2.391-.238c.261,0,.325-.064.395-.528s1.938-7.009,2.182-7.4a6.841,6.841,0,0,1,3.835-.963Zm-1.892,4.363-.186.795L454.624,284c0,.046.035.07.1.07l1.839.035c.035,0,.052,0,.035-.07l-.743-3.812c0-.1,0-.133-.052-.157a.2.2,0,0,0-.122,0Z" transform="translate(56.527 -256.072)" fill="#5b6abb"/>
    <path id="Path_2680" data-name="Path 2680" d="M498.974,275.542h.07a4.357,4.357,0,0,1,.273,1.34,26.649,26.649,0,0,1,.308,4.3v.064c0,.052.081.046.087,0a7.948,7.948,0,0,1,1.161-1.787,16.537,16.537,0,0,1,2.356-2.507,19.155,19.155,0,0,1,2.408-1.712h.1c.11,0,.325.174.632.528.621.58,1.271.952,1.8,1.451v.029c-.377.226-.754.453-1.16.673a15.961,15.961,0,0,0-1.578,1.161,3.58,3.58,0,0,0-.58.545,30.172,30.172,0,0,0-3.023,3.191v.157a2.269,2.269,0,0,1,.453.58,25.147,25.147,0,0,0,3.482,3.592c.186.151,1.979,1.4,1.979,1.427h0c0,.516-1.741,2.5-2.257,2.988h-.029c-.807-.54-1.387-1.033-2.153-1.63a16.066,16.066,0,0,1-1.8-2.031,20.58,20.58,0,0,1-1.543-2.373,1.161,1.161,0,0,1-.244-.545H499.6l-.244,2.762c-.041.83-.122,1.654-.238,2.443-.064.4-.191.58-.4.58a12.376,12.376,0,0,0-2.855.7c-.093.035-.157,0-.168-.064,0-.981.168-2.118.2-3.151.087-.47.162-3.992.162-4.642v-3.145c-.116-1.248-.151-2.617-.342-3.835v-.168s2.977-.928,3.284-.928Z" transform="translate(36.82 -255.879)" fill="#7808a8"/>
    <path id="Path_2681" data-name="Path 2681" d="M482.568,275.58c.331,0,.447.075.493.209.232.615.377,3.3-.1,3.951a9.338,9.338,0,0,0-1.271-.07,4.342,4.342,0,0,0-4.642,4.021,3.378,3.378,0,0,0,1.741,3.406c1.242.754,4.126.424,5.141-.737h.075c.279,0,.609,3.429.632,3.853a9.8,9.8,0,0,1-4.2,1.253v-.035l-.035.035a7.783,7.783,0,0,1-4.265-.911,10.7,10.7,0,0,1-1.161-.946,5.708,5.708,0,0,1-1.7-3.284,9.034,9.034,0,0,1,2.367-7.682,8.924,8.924,0,0,1,6.934-3.064Z" transform="translate(46.275 -256.022)" fill="#531f9d"/>
    <path id="Path_2682" data-name="Path 2682" d="M525.812,275.7a16.582,16.582,0,0,1,.876,3.04c.482,1.909,1.277,3.818,1.886,5.692.052.2.157.29.308.29l.708.07c.1,0,.139.035.133.1v.261a10.98,10.98,0,0,1-.238,1.973l.238.928c.29.795.58,1.259.882,2.031l.035.035v.035a8.888,8.888,0,0,1-1.323.754,6.963,6.963,0,0,1-1.99.679c-.209,0-1.161-3.888-1.4-4.062-1.126,0-2.721.029-3.847.07l-.244,1.207-.348,2.629c0,.041-2.46-.4-3.7-.516q-.087,0-.07-.087c0-.2.58-2.234.737-2.7v-.116a2.739,2.739,0,0,0-.812.151.145.145,0,0,1-.1,0s-.708-3.093-.708-3.319.8-.238,2.391-.238c.261,0,.325-.064.395-.528s2.112-7.009,2.362-7.4a6.829,6.829,0,0,1,3.835-.963Zm-1.892,4.363-.192.795-.58,3.162c0,.046.041.07.1.07l1.839.035q.052,0,.035-.07l-1.056-3.835c0-.1,0-.133-.058-.157a.181.181,0,0,0-.116,0Z" transform="translate(27.946 -256.072)" fill="#ac0e91"/>
    <path id="Path_2683" data-name="Path 2683" d="M392.016,291.017a7.2,7.2,0,0,1,.035,1.16,20.407,20.407,0,0,1-4.259.58,4.893,4.893,0,0,1-.058-1.689c-2.217.11-3.922.325-6.1.534a11.411,11.411,0,0,0-1.015,1.445.064.064,0,0,1-.087,0c-.667-.406-1.282-.789-1.926-1.236h-.429l-1.358.238c-.1.029-.116-.064-.1-.2V290.8l-.255-1.787c.162-.215,1.485-.261,1.741-.261l2.28-3.54c.162-.081,2.466-3.685,2.524-3.8.064,0,1.062-2.483,1.224-2.942l.464-2.008a1.253,1.253,0,0,1,.847-.981s6.6-.232,6.882-.139c.075,0-.377,3.69-.418,3.992-.2,2.71-.221,5.222-.168,7.909v.841h1.584c.122,0,.162.064.1.186l-.244.516a8.189,8.189,0,0,0-.615,2.153c0,.081-.1.1-.209.1Zm-5.158-3.029a58.5,58.5,0,0,1,.638-7.735l-.58-.052h-.035c-.145-.058-2.24,4.062-2.443,4.456-.052,0-1.892,3.162-2.159,3.522,1.306-.122,3.238-.151,4.549-.191Z" transform="translate(86.867 -255.914)" fill="#62ab00"/>
    <path id="Path_2684" data-name="Path 2684" d="M279.26,262.776a4.381,4.381,0,0,1,1.16-1.938c2.083-1.979,6.458-2.042,9.139-1.433a11.605,11.605,0,0,1,3.946,1.683,6.674,6.674,0,0,1,1.5,1.352,4.126,4.126,0,0,1,.923,3.273,11.713,11.713,0,0,1-.191,6.383c.65,4.921-.058,7.543-2.9,11.3a4.383,4.383,0,0,1,.168.487,4.688,4.688,0,0,1-1.468,4.642,3.511,3.511,0,0,1-2.524,1.027,3.754,3.754,0,0,1-1.323.232,3.87,3.87,0,0,1-2.042.029,3.418,3.418,0,0,1-2.066.151h-.22a3.586,3.586,0,0,1-1.161-.081,1.509,1.509,0,0,0-.824.2,9.7,9.7,0,0,1-.743.8,4.207,4.207,0,0,1-3.766,1.259,3.882,3.882,0,0,1-1.445-.609,3.708,3.708,0,0,1-2.466-.638A3.847,3.847,0,0,1,271.375,287a3.806,3.806,0,0,1-.609-1.364c-.441-2,.83-3.482,2.089-4.81.215-2.414,2.321-5.315,3.917-7.149l.429-.493a12.359,12.359,0,0,1-.766-1.393c-.807-1.741-1.427-3.917-.708-5.768a6.789,6.789,0,0,1,3.534-3.273Z" transform="translate(131.27 -249.09)" fill="#fefefe" fill-rule="evenodd"/>
    <path id="Path_2685" data-name="Path 2685" d="M280.055,296.583s-3.325,3.186-3.226,3.65,1.9-.215,1.9-.215-1.659,2.959-1.16,3.284,2.7-1.793,2.7-1.793-.731,2.367-.116,2.489,2.071-2.246,2.489-2.623c0,0-.337.656-.035.76s2.965-3.249,3.783-3.621-2.971-4.938-6.319-1.932Z" transform="translate(128.688 -264.411)" fill="#007cbc"/>
    <path id="Path_2686" data-name="Path 2686" d="M283.11,293.243a34.936,34.936,0,0,0-3.864,4.242c-.638,1.155,1.271.632,1.317.627s-.975,1.514-.58,2.019,1.955-.383,1.955-.383-.5,1.085.116,1.073,2.112-1.834,2.112-1.834-.366,1.16,0,1.242,2.634-2.4,2.634-2.4,1.073-6.737-3.708-4.584Z" transform="translate(127.728 -263.258)" fill="#f7cb10"/>
    <path id="Path_2687" data-name="Path 2687" d="M283.464,292.991a35.385,35.385,0,0,0-3.1,3.876c-.638,1.155,1.387.58,1.433.58s-1.16,1.242-.772,1.741,2.663-1.66,2.663-1.66-.58,1.863.035,1.851,1.306-1.59,1.306-1.59-.244,1.242.128,1.306,1.41-1.741,1.41-1.741,1.683-6.551-3.1-4.4Z" transform="translate(127.257 -263.133)" fill="#ba2c25"/>
    <path id="Path_2688" data-name="Path 2688" d="M298.217,279.686c-.308.29-1.294-.406-1.294-.406a1.16,1.16,0,0,1-.749,1.056c-.749.267-2.379-.957-2.379-.957s-.464,1.16-1.126.7-1.265-2.2-1.59-2.2a4.451,4.451,0,0,0-1.1.453,2.263,2.263,0,0,0,1.085,1.555s-3.714,6.522-4.479,8.019-.754,1.776.58,2.629,5.089.435,6.679.511c1.741-.795,2.257-1.456,3.638-3.2,2.095-2.658,1.277-7.456.934-9.034A1.242,1.242,0,0,1,298.217,279.686Z" transform="translate(124.806 -256.983)" fill="#d13423"/>
    <path id="Path_2689" data-name="Path 2689" d="M296.52,300.4a3.035,3.035,0,0,0,1.741,1.346,1.033,1.033,0,0,1,1.044.046c.58.337.255,1.05-.255,1.485,0,0-.261-1.015-.783-1.01,0,0,.325.986-.522,1.253a1.387,1.387,0,0,0-.5-1.015s.191,1.091-.644,1.16c0,0,.1-.818-.441-1.085a.76.76,0,0,1-.279-.58s-.081-1.584-1.16-1.694,1.81.087,1.81.087Z" transform="translate(121.281 -266.387)" fill="#2c5c8d"/>
    <path id="Path_2690" data-name="Path 2690" d="M291.573,300.148a2.994,2.994,0,0,0,1.381,1.689,1.05,1.05,0,0,1,1.01.273c.476.453,0,1.085-.58,1.393,0,0-.029-1.044-.54-1.161,0,0,.093,1.033-.789,1.108a1.369,1.369,0,0,0-.267-1.1s-.052,1.108-.888,1c0,0,.279-.772-.186-1.16a.749.749,0,0,1-.145-.638s.279-1.561-.743-1.9,1.741.476,1.741.476Z" transform="translate(123.327 -266.09)" fill="#2c5c8d"/>
    <path id="Path_2691" data-name="Path 2691" d="M291.837,284a5.623,5.623,0,0,1-1.039,4.445,10.549,10.549,0,0,0-1.741,2.257c-.354.981.749.58.749.58s-.58,1.538.284,1.311,1.921-.406,1.921-.406-.366.725.267.69a5.025,5.025,0,0,0,1.642-.58s-.522.725-.029.679a15.23,15.23,0,0,0,2.721-1.741,7.683,7.683,0,0,1-2.507,2.414c-.621.261-1.886.8-1.88.342a3.214,3.214,0,0,1-1.741.342c-1.015-.075-.226-.435-.226-.435a5.065,5.065,0,0,1-1.654.354c-.58-.058-.348-.615-.348-.615a1.5,1.5,0,0,1-1.468.191c-.824-.337-1.358-1.5-1.12-1.909s5.582-8.094,6.127-7.891Z" transform="translate(125.001 -259.556)" fill="#c42d25"/>
    <path id="Path_2692" data-name="Path 2692" d="M289.557,283.293A6.134,6.134,0,0,1,287.816,288c-2.019,1.857-5.884,5.17-6.563,4.683s.9-2.025.9-2.025-1.242.888-1.6.54,1-1.63,1-1.63-.766.116-.058-.957a27.949,27.949,0,0,1,5-5.222c1.213-.7,3.1-1.549,3.04-.122Z" transform="translate(127.147 -258.925)" fill="#1684bf"/>
    <path id="Path_2693" data-name="Path 2693" d="M286.744,283.291s-4.712,4.961-4.6,5.7,1.277-.215,1.277-.215-.5.917-.2,1.16,2.4-1.741,2.4-1.741-.058,1.027.638,1.085,3.342-2.988,3.83-3.969-1.474-3.609-3.354-2.042Z" transform="translate(126.455 -259.044)" fill="#f7cb10"/>
    <path id="Path_2694" data-name="Path 2694" d="M290.732,280.813c-.691.081-2.716,2.048-3.2,2.594-1.277,1.439-1.543,2.64-1.306,2.774s1.741-.807,1.741-.807-.337.847.029.894a4.577,4.577,0,0,0,1.48-.627s-.209.441.191.516,2.367-1.393,2.652-2.977-.685-2.478-1.607-2.367Z" transform="translate(124.777 -258.215)" fill="#e33b17"/>
    <path id="Path_2695" data-name="Path 2695" d="M294.87,275.067c.847.116,1.16-1.027,1.16-1.027s1.63,1.224,2.379.957a1.161,1.161,0,0,0,.749-1.056s.986.7,1.294.406a1.242,1.242,0,0,0,.186-.888c-.07-.325-.122-.511-.122-.511a1.977,1.977,0,0,0,.093.2c.116.238.337.545.545.168.313-.545-.424-2.373-.424-2.373s.656.923.836-.2-1.306-2.814-1.306-2.814.685.273.87-.2-1.4-1.741-3.632-2.275-5.118-.191-5.89.545.487,1.8.487,1.8,0,3.325.07,4.764a2.32,2.32,0,0,0,.052.418c.377.9.551,1.277.719,1.277a1.108,1.108,0,0,0,1.108-.69c.1.731.516,1.451.841,1.5Z" transform="translate(122.588 -251.662)" fill="#e33b17"/>
    <path id="Path_2696" data-name="Path 2696" d="M293.05,269.613s1.4-1.683,2.321-1.683,3.9,1.433,3.679,3.128c-.435,3.429-4.543,3.354-5.008,2.965s-.975-4.41-.975-4.41Z" transform="translate(121.879 -252.811)" fill="#323c40"/>
    <path id="Path_2697" data-name="Path 2697" d="M293.05,269.608s1.3-1.683,2.147-1.689,3.685,1.433,3.406,3.116c-.429,2.605-4.305,3.1-4.741,2.721S293.05,269.608,293.05,269.608Z" transform="translate(121.879 -252.807)" fill="#e0e8ee"/>
    <path id="Path_2698" data-name="Path 2698" d="M297.21,272.272a1.085,1.085,0,0,0,1.613-.7A1.3,1.3,0,0,1,297.21,272.272Z" transform="translate(120.132 -254.339)" fill="#d0d3d7"/>
    <path id="Path_2699" data-name="Path 2699" d="M296.51,272.438s1.393,1.335,2.617-.778C299.127,271.66,298.019,273.3,296.51,272.438Z" transform="translate(120.426 -254.377)" fill="#d0d3d7"/>
    <path id="Path_2700" data-name="Path 2700" d="M289.226,274.738a5.675,5.675,0,0,0,3.064,2.1,2.037,2.037,0,0,0,.917-1.16c.151-.7.493-2.75-.824-3.54s-3.278,1.671-3.157,2.57Z" transform="translate(123.486 -254.513)" fill="#1c2021"/>
    <path id="Path_2701" data-name="Path 2701" d="M288.789,272.044a8.124,8.124,0,0,1,1.161-2.379,2.153,2.153,0,0,0-.714-.545s-3.812,1.433-4.2,2.443.778,3.835,1.9,4.926c0,0,.441-1.944.946-2.263a5.83,5.83,0,0,1,1.161-.429,3.679,3.679,0,0,1-.261-1.741Z" transform="translate(125.275 -253.31)" fill="#fcdbb3"/>
    <path id="Path_2702" data-name="Path 2702" d="M292.729,270.035a8.123,8.123,0,0,0-1.16,2.379,3.679,3.679,0,0,0,.261,1.741,3.348,3.348,0,0,0,1.126-.47,20.529,20.529,0,0,0,.94-1.944,8.506,8.506,0,0,0-1.16-1.741Z" transform="translate(122.507 -253.68)" fill="#2b3334"/>
    <path id="Path_2703" data-name="Path 2703" d="M298.477,270.225c0,.447-.232.841-.516.865s-.516-.308-.511-.76.238-.841.522-.87.511.313.5.766Z" transform="translate(120.032 -253.452)" fill="#141515"/>
    <path id="Path_2704" data-name="Path 2704" d="M298.469,270.1a.157.157,0,0,1-.145.145.116.116,0,0,1-.133-.116.157.157,0,0,1,.139-.151.122.122,0,0,1,.139.122Z" transform="translate(119.721 -253.671)" fill="#fefefe"/>
    <path id="Path_2705" data-name="Path 2705" d="M276.468,323.934h-.72q-.087,0-.122.174c-.075.464-.453.807-1.219.807-.882,0-1.253-.441-1.1-1.4l.186-1.161c.151-.946.534-1.4,1.468-1.4.691,0,1.12.313,1.044.818,0,.116,0,.174.064.174h.72c.081,0,.122-.07.157-.255.162-.934-.58-1.555-1.857-1.555a2.219,2.219,0,0,0-2.472,2.106l-.22,1.352c-.221,1.369.464,2.159,1.926,2.159,1.306,0,2.141-.644,2.257-1.7a.086.086,0,0,0-.1-.1Zm4.091-.627c1.16-.139,1.909-.679,1.909-1.741,0-.923-.638-1.439-1.88-1.439a2.171,2.171,0,0,0-2.4,2.095l-.232,1.4c-.221,1.352.516,2.118,1.921,2.118,1.224,0,2.112-.633,2.135-1.514,0-.052,0-.1-.087-.1h-.7c-.1,0-.133.046-.151.18-.07.36-.5.615-1.12.615-.8,0-1.207-.418-1.108-1.16l.035-.244Zm-.058-2.373c.65,0,1.01.244,1.01.673,0,.58-.308.824-1.073.934l-1.427.2.087-.58a1.288,1.288,0,0,1,1.4-1.242Zm5.8,2.559,2.077-3.162c.041-.064.075-.087.128-.087h.783a.087.087,0,0,1,.1.11l-.737,5.141a.122.122,0,0,1-.122.11h-.714c-.064,0-.1-.035-.087-.11l.447-2.965.168-.87h0l-.528.882-1.636,2.321c-.052.075-.139.075-.174,0l-.911-2.321-.255-.882h0l-.11.87-.487,2.965a.122.122,0,0,1-.128.11h-.708a.093.093,0,0,1-.087-.11l.9-5.141a.128.128,0,0,1,.133-.11h.737a.11.11,0,0,1,.11.087Zm6.679-.186c1.16-.139,1.909-.679,1.909-1.741,0-.923-.638-1.439-1.874-1.439a2.179,2.179,0,0,0-2.4,2.095l-.232,1.4c-.22,1.352.516,2.118,1.921,2.118,1.23,0,2.118-.633,2.135-1.514,0-.052,0-.1-.087-.1h-.731c-.1,0-.128.046-.151.18-.064.36-.5.615-1.12.615-.8,0-1.207-.418-1.108-1.16l.035-.244Zm-.052-2.373c.644,0,1,.244,1,.673,0,.58-.3.824-1.073.934l-1.422.2.087-.58a1.282,1.282,0,0,1,1.4-1.242Zm5.872-1.317a1.88,1.88,0,0,0,1.346-.516.232.232,0,0,0,.07-.128l.087-.58c0-.093-.035-.1-.122-.046a2.037,2.037,0,0,1-1.294.528,1.422,1.422,0,0,1-1.114-.528c-.064-.052-.122-.046-.145.046l-.087.58a.133.133,0,0,0,0,.133,1.491,1.491,0,0,0,1.236.522Zm1.944.627H300a.128.128,0,0,0-.122.11l-.58,3.638a2.758,2.758,0,0,1-1.741.923c-.487,0-.725-.389-.621-1.091l.58-3.481a.093.093,0,0,0-.1-.11h-.69a.139.139,0,0,0-.133.11l-.551,3.516c-.191,1.16.18,1.863,1.132,1.863a3.075,3.075,0,0,0,2.095-.963c0,.25-.035.493-.035.725a.1.1,0,0,0,.11.11h.58c.087,0,.133-.046.133-.11a8.666,8.666,0,0,1,.122-1.23l.615-3.911a.087.087,0,0,0-.087-.11Zm5.849,0h-.7a.133.133,0,0,0-.122.11l-.325,2.112h-2.42l.342-2.112a.1.1,0,0,0-.1-.11h-.69a.133.133,0,0,0-.133.11l-.812,5.141a.087.087,0,0,0,.087.11h.7a.122.122,0,0,0,.122-.11l.36-2.228h2.408l-.354,2.228a.087.087,0,0,0,.087.11h.708a.122.122,0,0,0,.116-.11l.812-5.141C306.682,320.29,306.682,320.244,306.595,320.244Zm4,1.375a2.454,2.454,0,0,0-1.706.766l.325-2.031c0-.064-.029-.11-.1-.11h-.7a.133.133,0,0,0-.133.11l-.528,3.331c-.22,1.393.3,2.048,1.654,2.048a2.113,2.113,0,0,0,2.379-1.851l.093-.54c.174-1.1-.331-1.741-1.3-1.741Zm3.859-1.375h-.7a.128.128,0,0,0-.128.11l-.812,5.141c0,.064,0,.11.087.11h.7a.122.122,0,0,0,.122-.11l.824-5.141a.1.1,0,0,0-.1-.11Zm-3.6,3.69a1.16,1.16,0,0,1-1.329,1.044c-.725,0-.986-.418-.876-1.108l.087-.58a2.072,2.072,0,0,1,1.514-.824c.545,0,.766.325.679.934Zm7.479-4.294a1.9,1.9,0,0,0,1.352-.516.267.267,0,0,0,.064-.128l.087-.58c0-.093-.035-.1-.122-.046a2.037,2.037,0,0,1-1.294.528,1.422,1.422,0,0,1-1.114-.528c-.064-.052-.116-.046-.139.046l-.093.58a.134.134,0,0,0,0,.133,1.5,1.5,0,0,0,1.236.522Zm1.944.627h-.7a.128.128,0,0,0-.122.11l-.58,3.638a2.784,2.784,0,0,1-1.741.923c-.482,0-.725-.389-.615-1.091l.58-3.481a.093.093,0,0,0-.1-.11h-.69a.128.128,0,0,0-.128.11l-.58,3.516c-.186,1.16.186,1.863,1.16,1.863a3.064,3.064,0,0,0,2.089-.963c0,.249-.029.493-.029.725,0,.075.029.11.1.11h.58c.093,0,.133-.046.133-.11a9.593,9.593,0,0,1,.122-1.23l.615-3.911a.087.087,0,0,0-.087-.11Zm6.708-.128a2.971,2.971,0,0,0-1.9.8v-.58c0-.128-.035-.11-.1-.11h-.615a.133.133,0,0,0-.133.133,9.127,9.127,0,0,1-.1,1.108l-.952,6.04a.087.087,0,0,0,.087.11h.7a.122.122,0,0,0,.122-.11l.337-2.118a3.081,3.081,0,0,0,1.451.325c1.207,0,1.961-.766,2.193-2.182l.215-1.375c.22-1.369-.226-2.06-1.277-2.06Zm.371,2.106-.2,1.23c-.162,1-.58,1.462-1.381,1.462a2.954,2.954,0,0,1-1.253-.29l.464-2.866a2.855,2.855,0,0,1,1.665-.824c.58,0,.847.4.7,1.288Zm6.876-1.851c-.847-.058-1.427-.273-2.188-.273a2.126,2.126,0,0,0-2.425,2.106l-.22,1.381c-.2,1.242.1,2.13,1.23,2.13a3.075,3.075,0,0,0,2.054-.975c0,.255-.035.5-.035.737a.1.1,0,0,0,.11.11h.609c.087,0,.128-.046.128-.11a7.892,7.892,0,0,1,.122-1.23Zm-3.934,3.249.221-1.34c.151-.934.551-1.364,1.526-1.364a6.428,6.428,0,0,1,1.161.122l-.458,2.9a2.805,2.805,0,0,1-1.776.934c-.679,0-.8-.511-.679-1.277Zm6.58,1.294c-.725,0-1.085-.215-1.033-.644,0-.11,0-.168-.064-.168h-.69c-.081,0-.133.058-.168.2-.174.836.493,1.416,1.868,1.416s2.176-.522,2.321-1.514v-.162a1,1,0,0,0-.836-1.16,1.509,1.509,0,0,0,1.1-1.219v-.162c.122-.946-.615-1.393-1.822-1.393-1.381,0-2.066.58-2.153,1.427,0,.139.035.186.11.186h.7c.07,0,.11-.058.133-.168.064-.412.453-.644,1.12-.644s1.085.3,1.021.725v.139c-.075.482-.615.737-1.451.737h-.621a.122.122,0,0,0-.122.11l-.087.516c0,.064,0,.11.1.11h.83c.807,0,1.126.284,1.056.8v.162c-.075.464-.5.714-1.294.714Zm6.853-2.164a1.329,1.329,0,0,0,1.12-1.364c0-.824-.615-1.259-1.77-1.259a2.105,2.105,0,0,0-2.35,2.042l-.255,1.538c-.221,1.346.516,2.037,1.8,2.037,1.387,0,2.373-.58,2.373-1.9a1.033,1.033,0,0,0-.923-1.1ZM343,320.951c.615,0,.957.162.957.644s-.308.83-1.108.882l-1.265.087.052-.348c.133-.818.482-1.265,1.364-1.265Zm-.58,4c-.917,0-1.16-.453-1.021-1.259l.07-.418,1.12-.081c.859-.064,1.161.157,1.161.7,0,.7-.482,1.056-1.335,1.056ZM347.1,320.4l-.888,3.7c-.145.58-.354.876-.737.876a1.737,1.737,0,0,1-.244,0,.11.11,0,0,0-.128.1l-.087.58a.087.087,0,0,0,.075.11,3.547,3.547,0,0,0,.383,0c.975,0,1.352-.534,1.6-1.555l.76-3.128h1.712l-.7,4.445a.087.087,0,0,0,.087.11h.7a.134.134,0,0,0,.122-.11l.812-5.129c0-.064,0-.122-.087-.122h-3.238a.151.151,0,0,0-.145.122Zm7.038,2.942c1.161-.139,1.909-.679,1.909-1.741,0-.923-.638-1.439-1.874-1.439a2.179,2.179,0,0,0-2.4,2.095l-.232,1.4c-.22,1.352.516,2.118,1.921,2.118,1.23,0,2.118-.632,2.141-1.514a.087.087,0,0,0-.093-.1h-.7c-.1,0-.133.046-.157.18-.064.36-.5.615-1.12.615-.8,0-1.2-.418-1.1-1.16v-.244Zm-.052-2.373c.644,0,1.01.244,1.01.673,0,.58-.308.824-1.079.934l-1.422.2.087-.58a1.288,1.288,0,0,1,1.4-1.242Zm7.8-.69h-.853a.18.18,0,0,0-.151.07l-1.8,2.048h-.7l.319-2.008c0-.064-.029-.11-.1-.11h-.691a.139.139,0,0,0-.133.11l-.812,5.141a.087.087,0,0,0,.087.11h.7a.116.116,0,0,0,.122-.11l.389-2.385h.807l1.219,2.425a.116.116,0,0,0,.122.07h.812a.093.093,0,0,0,.087-.133l-1.427-2.832,2.054-2.263c.064-.064.041-.133-.046-.133Zm5.153.145c-.841-.058-1.427-.273-2.182-.273a2.13,2.13,0,0,0-2.431,2.106l-.22,1.381c-.2,1.242.1,2.13,1.23,2.13a3.1,3.1,0,0,0,2.06-.975c0,.255-.035.5-.035.737a.1.1,0,0,0,.11.11h.58c.087,0,.133-.046.133-.11a7.251,7.251,0,0,1,.122-1.23Zm-3.934,3.249.221-1.34c.157-.934.551-1.364,1.532-1.364a6.313,6.313,0,0,1,1.16.122l-.458,2.9a2.8,2.8,0,0,1-1.77.934c-.685,0-.807-.511-.685-1.277Zm11.6-3.522a3.052,3.052,0,0,0-2.1,1.021,1.056,1.056,0,0,0-1.207-1.021,2.837,2.837,0,0,0-1.973.94v-.731c0-.07,0-.081-.087-.081h-.65a.134.134,0,0,0-.145.133,8.217,8.217,0,0,1-.075,1.2l-.615,3.911c0,.064,0,.11.087.11h.7a.122.122,0,0,0,.122-.11l.58-3.627c.754-.667,1.224-.934,1.741-.934s.72.366.609,1.079l-.545,3.482a.087.087,0,0,0,.087.11h.7a.122.122,0,0,0,.122-.11l.58-3.627a2.87,2.87,0,0,1,1.741-.934c.487,0,.714.366.58,1.079l-.545,3.482c0,.064,0,.11.087.11h.7a.122.122,0,0,0,.122-.11l.58-3.557c.2-1.207-.209-1.822-1.16-1.822Zm5,3.191c1.161-.139,1.909-.679,1.909-1.741,0-.923-.632-1.439-1.874-1.439a2.179,2.179,0,0,0-2.4,2.095l-.226,1.4c-.22,1.352.516,2.118,1.921,2.118,1.224,0,2.112-.632,2.135-1.514,0-.052,0-.1-.087-.1h-.7c-.1,0-.133.046-.157.18-.064.36-.5.615-1.114.615-.8,0-1.207-.418-1.108-1.16l.035-.244Zm-.052-2.373c.65,0,1.01.244,1.01.673,0,.58-.308.824-1.073.934l-1.427.2.087-.58a1.288,1.288,0,0,1,1.4-1.242Zm4.062-.58-.894,3.7c-.139.58-.348.876-.731.876a1.746,1.746,0,0,1-.244,0,.11.11,0,0,0-.128.1l-.087.58c0,.064,0,.1.075.11a3.547,3.547,0,0,0,.383,0c.975,0,1.346-.534,1.6-1.555l.76-3.128h1.712l-.7,4.445c0,.064,0,.11.087.11h.7a.134.134,0,0,0,.122-.11l.812-5.129c0-.064,0-.122-.093-.122h-3.238a.145.145,0,0,0-.139.122Zm7.387,1.224a2.454,2.454,0,0,0-1.741.766l.331-2.031a.1.1,0,0,0-.1-.11h-.638a.139.139,0,0,0-.133.11l-.522,3.331c-.22,1.393.3,2.048,1.654,2.048a2.113,2.113,0,0,0,2.379-1.851l.087-.54c.174-1.1-.331-1.741-1.294-1.741Zm.273,2.321a1.16,1.16,0,0,1-1.329,1.044c-.72,0-.981-.418-.876-1.108l.087-.58a2.083,2.083,0,0,1,1.514-.824c.545,0,.766.325.679.934Zm6.963-3.667h-.679a.133.133,0,0,0-.122.11l-.325,2.112h-2.42l.342-2.112a.1.1,0,0,0-.1-.11h-.69a.133.133,0,0,0-.133.11l-.789,5.124a.087.087,0,0,0,.087.11h.7a.122.122,0,0,0,.122-.11l.36-2.228H397.1l-.354,2.228a.087.087,0,0,0,.087.11h.708a.122.122,0,0,0,.116-.11l.812-5.141c0-.064,0-.11-.087-.11Zm4,1.375a2.454,2.454,0,0,0-1.706.766l.325-2.031c0-.064,0-.11-.1-.11h-.685a.134.134,0,0,0-.133.11l-.528,3.331c-.215,1.393.3,2.048,1.66,2.048a2.113,2.113,0,0,0,2.379-1.851l.087-.54c.174-1.1-.331-1.741-1.3-1.741Zm3.859-1.375h-.7a.128.128,0,0,0-.128.11l-.812,5.141c0,.064,0,.11.087.11h.7a.122.122,0,0,0,.122-.11l.824-5.141a.1.1,0,0,0-.1-.11Zm-3.557,3.667a1.16,1.16,0,0,1-1.329,1.044c-.725,0-.986-.418-.876-1.108l.087-.58a2.072,2.072,0,0,1,1.514-.824c.545,0,.766.325.679.934Zm7.479-4.294a1.9,1.9,0,0,0,1.352-.516.266.266,0,0,0,.064-.128l.087-.58c0-.093,0-.1-.122-.046a2.025,2.025,0,0,1-1.294.528,1.422,1.422,0,0,1-1.114-.528c-.064-.052-.116-.046-.139.046l-.087.58a.122.122,0,0,0,0,.133,1.5,1.5,0,0,0,1.236.522Zm1.944.627h-.7a.128.128,0,0,0-.122.11l-.58,3.638a2.784,2.784,0,0,1-1.741.923c-.482,0-.725-.389-.615-1.091l.58-3.481c0-.064,0-.11-.1-.11h-.69a.128.128,0,0,0-.128.11l-.58,3.516c-.186,1.16.186,1.863,1.16,1.863a3.064,3.064,0,0,0,2.089-.963c0,.25-.029.493-.029.725,0,.075.029.11.1.11h.609c.087,0,.128-.046.128-.11a9.6,9.6,0,0,1,.122-1.23l.615-3.911a.087.087,0,0,0-.087-.11Zm8.013,4.6H419.6a3.779,3.779,0,0,1,.075-.58l.615-3.911a.087.087,0,0,0-.087-.11h-.7a.133.133,0,0,0-.122.11L418.8,324a2.849,2.849,0,0,1-1.741.934c-.441,0-.737-.331-.627-1.056l.58-3.482a.1.1,0,0,0-.1-.11h-.7a.128.128,0,0,0-.128.11l-.58,3.545c-.186,1.19.22,1.834,1.126,1.834a3.012,3.012,0,0,0,2.1-.975v.737c0,.075,0,.11.11.11h.383l-.186,1.207c0,.064,0,.11.087.11h.65a.122.122,0,0,0,.116-.11l.3-1.857c0-.064,0-.11-.087-.11Zm3.783-1.538c1.16-.139,1.9-.679,1.9-1.741,0-.923-.632-1.439-1.874-1.439a2.179,2.179,0,0,0-2.4,2.095l-.226,1.4c-.22,1.352.516,2.118,1.921,2.118,1.224,0,2.112-.632,2.135-1.514,0-.052,0-.1-.087-.1h-.7c-.1,0-.133.046-.157.18-.064.36-.5.615-1.114.615-.8,0-1.207-.418-1.108-1.16l.035-.244Zm-.058-2.373c.65,0,1.01.244,1.01.673,0,.58-.308.824-1.073.934l-1.427.2.087-.58a1.288,1.288,0,0,1,1.4-1.242Zm7.839-.691h-.7a.128.128,0,0,0-.122.11l-.331,2.112h-2.414l.342-2.112a.1.1,0,0,0-.1-.11h-.7a.128.128,0,0,0-.128.11l-.812,5.141c0,.064,0,.11.087.11h.7a.122.122,0,0,0,.122-.11l.36-2.228h2.408l-.354,2.228a.087.087,0,0,0,.087.11h.7a.122.122,0,0,0,.122-.11l.812-5.141a.087.087,0,0,0-.087-.11Zm7.758-.128a3.041,3.041,0,0,0-2.095,1.021,1.056,1.056,0,0,0-1.207-1.021,2.826,2.826,0,0,0-1.973.94v-.731c0-.07,0-.081-.087-.081H433.4a.133.133,0,0,0-.145.133,7.548,7.548,0,0,1-.122,1.207l-.615,3.911a.087.087,0,0,0,.087.11h.7a.122.122,0,0,0,.122-.11l.58-3.627c.754-.667,1.224-.934,1.741-.934s.725.366.615,1.079l-.545,3.481a.087.087,0,0,0,.087.11h.7a.122.122,0,0,0,.122-.11l.58-3.627a2.871,2.871,0,0,1,1.741-.934c.487,0,.714.366.58,1.079l-.551,3.481a.087.087,0,0,0,.087.11h.708a.122.122,0,0,0,.116-.11l.58-3.557c.2-1.207-.209-1.822-1.161-1.822Zm5.744,0a2.983,2.983,0,0,0-1.9.8v-.58c0-.128-.035-.11-.1-.11h-.656a.128.128,0,0,0-.133.133,10.44,10.44,0,0,1-.1,1.108l-.957,6.04a.087.087,0,0,0,.087.11h.7a.122.122,0,0,0,.122-.11l.342-2.118a3.07,3.07,0,0,0,1.445.325c1.213,0,1.967-.766,2.193-2.182l.22-1.375c.215-1.369-.232-2.06-1.282-2.06Zm.377,2.106-.2,1.23c-.168,1-.58,1.462-1.387,1.462a2.9,2.9,0,0,1-1.248-.29l.458-2.866a2.855,2.855,0,0,1,1.665-.824c.58,0,.847.4.708,1.288Z" transform="translate(130.563 -273.959)" fill="#25378b" stroke="#25378b" stroke-miterlimit="10" stroke-width="0.57"/>
  </g>
</svg>
