<svg width="22" height="15" viewBox="0 0 22 15" fill="none" xmlns="http://www.w3.org/2000/svg">
<path d="M20.8701 7.50012C20.2301 6.39012 16.7101 0.820116 10.7301 1.00012C5.20007 1.14012 2.00007 6.00012 1.13007 7.50012C1.0423 7.65214 0.996094 7.82458 0.996094 8.00012C0.996094 8.17565 1.0423 8.3481 1.13007 8.50012C1.76007 9.59012 5.13007 15.0001 11.0201 15.0001H11.2701C16.8001 14.8601 20.0101 10.0001 20.8701 8.50012C20.9578 8.3481 21.004 8.17565 21.004 8.00012C21.004 7.82458 20.9578 7.65214 20.8701 7.50012V7.50012ZM11.2201 13.0001C6.91007 13.1001 4.10007 9.41012 3.22007 8.00012C4.22007 6.39012 6.83007 3.10012 10.8301 3.00012C15.1201 2.89012 17.9401 6.59012 18.8301 8.00012C17.8001 9.61012 15.2201 12.9001 11.2201 13.0001V13.0001Z" fill="#999EB2"/>
<path d="M11 4.5C10.3078 4.5 9.63108 4.70527 9.05551 5.08986C8.47993 5.47444 8.03133 6.02107 7.76642 6.66061C7.50152 7.30015 7.4322 8.00388 7.56725 8.68282C7.7023 9.36175 8.03564 9.98539 8.52513 10.4749C9.01461 10.9644 9.63825 11.2977 10.3172 11.4327C10.9961 11.5678 11.6999 11.4985 12.3394 11.2336C12.9789 10.9687 13.5256 10.5201 13.9101 9.9445C14.2947 9.36892 14.5 8.69223 14.5 8C14.5 7.07174 14.1313 6.1815 13.4749 5.52513C12.8185 4.86875 11.9283 4.5 11 4.5V4.5ZM11 9.5C10.7033 9.5 10.4133 9.41203 10.1666 9.2472C9.91997 9.08238 9.72771 8.84811 9.61418 8.57403C9.50065 8.29994 9.47095 7.99834 9.52882 7.70736C9.5867 7.41639 9.72956 7.14912 9.93934 6.93934C10.1491 6.72956 10.4164 6.5867 10.7074 6.52882C10.9983 6.47094 11.2999 6.50065 11.574 6.61418C11.8481 6.72771 12.0824 6.91997 12.2472 7.16665C12.412 7.41332 12.5 7.70333 12.5 8C12.5 8.39782 12.342 8.77936 12.0607 9.06066C11.7794 9.34196 11.3978 9.5 11 9.5Z" fill="#999EB2"/>
</svg>
