<svg width="161" height="160" viewBox="0 0 161 160" fill="none" xmlns="http://www.w3.org/2000/svg">
<path d="M122.165 146.667H38.8314C35.1647 146.667 32.8314 142.667 34.4981 139.334L43.8314 123.334H117.165L126.165 139.334C128.165 142.667 125.831 146.667 122.165 146.667Z" fill="#999EB2"/>
<path d="M80.5 136.666C113.637 136.666 140.5 109.803 140.5 76.666C140.5 43.5289 113.637 16.666 80.5 16.666C47.3629 16.666 20.5 43.5289 20.5 76.666C20.5 109.803 47.3629 136.666 80.5 136.666Z" fill="#DFE4EA"/>
<path d="M80.5 116.666C58.5 116.666 40.5 98.666 40.5 76.666C40.5 54.666 58.5 36.666 80.5 36.666C102.5 36.666 120.5 54.666 120.5 76.666C120.5 98.666 102.5 116.666 80.5 116.666Z" fill="#3C5A73"/>
<path d="M80.5 106.666C97.0685 106.666 110.5 93.2346 110.5 76.666C110.5 60.0975 97.0685 46.666 80.5 46.666C63.9315 46.666 50.5 60.0975 50.5 76.666C50.5 93.2346 63.9315 106.666 80.5 106.666Z" fill="#329BF0"/>
<path d="M96.4991 66.6693C92.4991 62.0026 86.4991 59.3359 80.4991 59.3359C74.4991 59.3359 68.4991 62.0026 64.4991 66.6693C62.8324 68.3359 63.1657 71.0026 64.8324 72.6693C66.4991 74.3359 69.1657 74.0026 70.8324 72.3359C75.8324 66.6693 85.1657 66.6693 90.1657 72.3359C91.1657 73.3359 92.1657 73.6693 93.4991 73.6693C94.4991 73.6693 95.4991 73.3359 96.4991 72.6693C97.8324 71.3359 98.1657 68.3359 96.4991 66.6693Z" fill="white"/>
</svg>
