<svg width="32" height="32" viewBox="0 0 32 32" fill="none" xmlns="http://www.w3.org/2000/svg">
<path fill-rule="evenodd" clip-rule="evenodd" d="M16 32C24.8366 32 32 24.8366 32 16C32 7.16344 24.8366 0 16 0C7.16344 0 0 7.16344 0 16C0 24.8366 7.16344 32 16 32Z" fill="#EFF2F6"/>
<path d="M24.625 6.625H7.375C6.96016 6.625 6.625 6.96016 6.625 7.375V24.625C6.625 25.0398 6.96016 25.375 7.375 25.375H24.625C25.0398 25.375 25.375 25.0398 25.375 24.625V7.375C25.375 6.96016 25.0398 6.625 24.625 6.625ZM12.625 21.4375C12.625 21.5406 12.5406 21.625 12.4375 21.625H10.5625C10.4594 21.625 10.375 21.5406 10.375 21.4375V10.5625C10.375 10.4594 10.4594 10.375 10.5625 10.375H12.4375C12.5406 10.375 12.625 10.4594 12.625 10.5625V21.4375ZM17.125 14.875C17.125 14.9781 17.0406 15.0625 16.9375 15.0625H15.0625C14.9594 15.0625 14.875 14.9781 14.875 14.875V10.5625C14.875 10.4594 14.9594 10.375 15.0625 10.375H16.9375C17.0406 10.375 17.125 10.4594 17.125 10.5625V14.875ZM21.625 16.5625C21.625 16.6656 21.5406 16.75 21.4375 16.75H19.5625C19.4594 16.75 19.375 16.6656 19.375 16.5625V10.5625C19.375 10.4594 19.4594 10.375 19.5625 10.375H21.4375C21.5406 10.375 21.625 10.4594 21.625 10.5625V16.5625Z" fill="#329BF0"/>
</svg>
