<svg width="48" height="48" viewBox="0 0 48 48" fill="none" xmlns="http://www.w3.org/2000/svg">
<path fill-rule="evenodd" clip-rule="evenodd" d="M24 48C37.2548 48 48 37.2548 48 24C48 10.7452 37.2548 0 24 0C10.7452 0 0 10.7452 0 24C0 37.2548 10.7452 48 24 48Z" fill="#EFF2F6"/>
<path fill-rule="evenodd" clip-rule="evenodd" d="M31 15H26.82C26.4 13.84 25.3 13 24 13C22.7 13 21.6 13.84 21.18 15H17C15.9 15 15 15.9 15 17V31C15 32.1 15.9 33 17 33H31C32.1 33 33 32.1 33 31V17C33 15.9 32.1 15 31 15ZM24 15C24.55 15 25 15.45 25 16C25 16.55 24.55 17 24 17C23.45 17 23 16.55 23 16C23 15.45 23.45 15 24 15ZM24 19C25.66 19 27 20.34 27 22C27 23.66 25.66 25 24 25C22.34 25 21 23.66 21 22C21 20.34 22.34 19 24 19ZM30 31H18V29.6C18 27.6 22 26.5 24 26.5C26 26.5 30 27.6 30 29.6V31Z" fill="#329BF0"/>
</svg>
