<svg width="32" height="32" viewBox="0 0 32 32" fill="none" xmlns="http://www.w3.org/2000/svg">
<rect width="32" height="32" rx="16" fill="#329BF0"/>
<path d="M23.4003 11.3399L20.6603 8.59986C20.3027 8.26395 19.8341 8.07122 19.3436 8.05831C18.8532 8.0454 18.3751 8.21323 18.0003 8.52986L9.0003 17.5299C8.67706 17.8558 8.4758 18.2831 8.4303 18.7399L8.0003 22.9099C7.98683 23.0563 8.00583 23.204 8.05596 23.3422C8.10608 23.4805 8.1861 23.606 8.2903 23.7099C8.38374 23.8025 8.49455 23.8759 8.61639 23.9256C8.73823 23.9754 8.86869 24.0006 9.0003 23.9999H9.0903L13.2603 23.6199C13.7171 23.5744 14.1443 23.3731 14.4703 23.0499L23.4703 14.0499C23.8196 13.6808 24.0084 13.1884 23.9953 12.6804C23.9822 12.1724 23.7682 11.6904 23.4003 11.3399ZM13.0803 21.6199L10.0803 21.8999L10.3503 18.8999L16.0003 13.3199L18.7003 16.0199L13.0803 21.6199ZM20.0003 14.6799L17.3203 11.9999L19.2703 9.99986L22.0003 12.7299L20.0003 14.6799Z" fill="white"/>
</svg>
