<svg width="120" height="40" viewBox="0 0 120 40" fill="none" xmlns="http://www.w3.org/2000/svg">
<path d="M0 19.5269C2.213 13.4085 8.07096 7.81095 14.0591 6.11865C14.1893 6.11865 14.3194 6.24883 14.1893 6.37901C2.60353 14.3198 14.4496 21.089 14.0591 21.4795C13.6686 21.87 6.24848 14.9707 0.260353 19.657C0.130177 19.7872 0 19.657 0 19.5269Z" fill="#329BF0"/>
<path d="M39.9639 20.5678C37.7509 26.6862 31.8929 32.2838 25.9048 33.976C25.7746 33.976 25.6444 33.8459 25.7746 33.7157C37.3603 25.7749 25.5143 19.0057 25.9048 18.6152C26.2953 18.2247 33.7154 25.124 39.7035 20.4377C39.8337 20.3075 40.0941 20.4377 39.9639 20.5678Z" fill="#3764AF"/>
<path d="M20.5683 0C26.6866 2.213 32.2842 8.07096 33.9765 14.0591C33.9765 14.1893 33.8464 14.3194 33.7162 14.1893C25.7754 2.60353 19.0062 14.4496 18.6157 14.0591C18.2252 13.6686 25.1245 6.24848 20.4382 0.260353C20.308 0.130177 20.4382 0 20.5683 0Z" fill="#18214D"/>
<path d="M19.5273 39.9644C13.409 37.7514 7.81144 31.8934 6.11914 25.9053C6.11914 25.7751 6.24932 25.6449 6.37949 25.7751C14.3203 37.3608 21.0895 25.5148 21.48 25.9053C21.8705 26.2958 14.9712 33.7159 19.6575 39.704C19.7877 39.8342 19.6575 40.0945 19.5273 39.9644Z" fill="#32C8F0"/>
<path d="M58.3646 10.3771C58.0441 7.80982 56.0308 6.3335 53.3651 6.3335C50.3226 6.3335 48 8.40686 48 12.0434C48 15.6691 50.2833 17.7533 53.3651 17.7533C56.3176 17.7533 58.1003 15.859 58.3646 13.8128L55.9014 13.8019C55.6709 14.9906 54.7036 15.6745 53.4045 15.6745C51.6555 15.6745 50.4688 14.4207 50.4688 12.0434C50.4688 9.73121 51.6386 8.41229 53.4213 8.41229C54.7542 8.41229 55.7158 9.15588 55.9014 10.3771H58.3646Z" fill="#18214D"/>
<path d="M70.6948 12.0434C70.6948 8.40686 68.3553 6.3335 65.3016 6.3335C62.231 6.3335 59.9084 8.40686 59.9084 12.0434C59.9084 15.6636 62.231 17.7533 65.3016 17.7533C68.3553 17.7533 70.6948 15.6799 70.6948 12.0434ZM68.226 12.0434C68.226 14.399 67.0675 15.6745 65.3016 15.6745C63.5301 15.6745 62.3772 14.399 62.3772 12.0434C62.3772 9.68779 63.5301 8.41229 65.3016 8.41229C67.0675 8.41229 68.226 9.68779 68.226 12.0434Z" fill="#18214D"/>
<path d="M72.4986 17.6013H74.9338V13.6608H76.7109L78.8929 17.6013H81.5811L79.1347 13.2809C80.4451 12.7381 81.1705 11.6363 81.1705 10.1166C81.1705 7.90751 79.6577 6.48547 77.0427 6.48547H72.4986V17.6013ZM74.9338 11.772V8.40686H76.5759C77.9818 8.40686 78.6623 9.00933 78.6623 10.1166C78.6623 11.2184 77.9818 11.772 76.5871 11.772H74.9338Z" fill="#18214D"/>
<path d="M82.8914 17.6013H85.3265V13.9973H87.3736C90.0224 13.9973 91.5633 12.4722 91.5633 10.2523C91.5633 8.04321 90.0505 6.48547 87.4354 6.48547H82.8914V17.6013ZM85.3265 12.1139V8.40686H86.9687C88.3746 8.40686 89.0551 9.14502 89.0551 10.2523C89.0551 11.3541 88.3746 12.1139 86.9799 12.1139H85.3265Z" fill="#18214D"/>
<path d="M54.6192 25.5853H56.9531C56.9193 23.6042 55.2322 22.2365 52.6677 22.2365C50.1427 22.2365 48.2924 23.5825 48.3037 25.6016C48.2981 27.2408 49.4959 28.1798 51.4418 28.6303L52.6959 28.9342C53.95 29.2273 54.6473 29.5747 54.6529 30.3237C54.6473 31.1378 53.8487 31.6914 52.6115 31.6914C51.3462 31.6914 50.4351 31.127 50.3564 30.0143H48C48.0619 32.4188 49.8446 33.6617 52.6396 33.6617C55.4515 33.6617 57.1049 32.3645 57.1105 30.3291C57.1049 28.4783 55.6596 27.4959 53.6575 27.0617L52.6228 26.8228C51.6217 26.6003 50.7838 26.2421 50.8006 25.4442C50.8006 24.7278 51.4586 24.2013 52.6509 24.2013C53.815 24.2013 54.5292 24.7115 54.6192 25.5853Z" fill="#18214D"/>
<path d="M62.6064 33.6671C65.2271 33.6671 66.858 31.9357 66.858 29.3684C66.858 26.7849 65.2271 25.0589 62.6064 25.0589C59.9857 25.0589 58.3548 26.7849 58.3548 29.3684C58.3548 31.9357 59.9857 33.6671 62.6064 33.6671ZM62.6176 31.876C61.4085 31.876 60.7899 30.8067 60.7899 29.3521C60.7899 27.8975 61.4085 26.8228 62.6176 26.8228C63.8043 26.8228 64.4229 27.8975 64.4229 29.3521C64.4229 30.8067 63.8043 31.876 62.6176 31.876Z" fill="#18214D"/>
<path d="M70.8115 22.3885H68.4158V33.5043H70.8115V22.3885Z" fill="#18214D"/>
<path d="M78.2701 29.9546C78.2757 31.0727 77.4827 31.6589 76.6223 31.6589C75.7169 31.6589 75.132 31.0456 75.1264 30.0632V25.1674H72.7306V30.4757C72.7362 32.4242 73.9172 33.6128 75.655 33.6128C76.9541 33.6128 77.8876 32.9669 78.2757 31.99H78.3657V33.5043H80.6658V25.1674H78.2701V29.9546Z" fill="#18214D"/>
<path d="M87.1767 25.1674H85.5515V23.17H83.1557V25.1674H81.9747V26.9043H83.1557V31.2464C83.1445 32.8801 84.2974 33.6888 86.0351 33.6183C86.6537 33.5966 87.0924 33.4771 87.3342 33.4012L86.9574 31.6806C86.8393 31.7023 86.5862 31.7566 86.3613 31.7566C85.8833 31.7566 85.5515 31.5829 85.5515 30.9424V26.9043H87.1767V25.1674Z" fill="#18214D"/>
<path d="M88.7374 33.5043H91.1331V25.1674H88.7374V33.5043ZM89.9408 24.0927C90.6551 24.0927 91.2399 23.5663 91.2399 22.9204C91.2399 22.2799 90.6551 21.7534 89.9408 21.7534C89.2322 21.7534 88.6474 22.2799 88.6474 22.9204C88.6474 23.5663 89.2322 24.0927 89.9408 24.0927Z" fill="#18214D"/>
<path d="M96.9551 33.6671C99.5758 33.6671 101.207 31.9357 101.207 29.3684C101.207 26.7849 99.5758 25.0589 96.9551 25.0589C94.3344 25.0589 92.7035 26.7849 92.7035 29.3684C92.7035 31.9357 94.3344 33.6671 96.9551 33.6671ZM96.9664 31.876C95.7572 31.876 95.1386 30.8067 95.1386 29.3521C95.1386 27.8975 95.7572 26.8228 96.9664 26.8228C98.153 26.8228 98.7716 27.8975 98.7716 29.3521C98.7716 30.8067 98.153 31.876 96.9664 31.876Z" fill="#18214D"/>
<path d="M105.16 28.6845C105.166 27.6099 105.829 26.9802 106.797 26.9802C107.758 26.9802 108.338 27.5881 108.332 28.6085V33.5043H110.728V28.196C110.728 26.2529 109.547 25.0589 107.747 25.0589C106.465 25.0589 105.537 25.6668 105.149 26.6383H105.048V25.1674H102.764V33.5043H105.16V28.6845Z" fill="#18214D"/>
<path d="M119.803 27.5447C119.589 26.0087 118.307 25.0589 116.125 25.0589C113.915 25.0589 112.459 26.0467 112.464 27.6533C112.459 28.9016 113.274 29.7104 114.961 30.036L116.457 30.3237C117.211 30.4702 117.554 30.7362 117.565 31.1541C117.554 31.648 116.997 32.0008 116.159 32.0008C115.304 32.0008 114.736 31.648 114.59 30.9696L112.234 31.089C112.458 32.6847 113.864 33.6671 116.153 33.6671C118.392 33.6671 119.994 32.5653 120 30.9207C119.994 29.7158 119.179 28.9939 117.503 28.6628L115.94 28.3589C115.135 28.1906 114.837 27.9247 114.843 27.523C114.837 27.0237 115.422 26.698 116.165 26.698C116.997 26.698 117.492 27.1377 117.61 27.675L119.803 27.5447Z" fill="#18214D"/>
</svg>
