<svg width="12" height="7" viewBox="0 0 12 7" fill="none" xmlns="http://www.w3.org/2000/svg">
<path d="M6.00019 6.49994C5.86858 6.5007 5.73812 6.47548 5.61628 6.42571C5.49444 6.37595 5.38363 6.30262 5.29019 6.20994L1.29019 2.20994C1.19695 2.1167 1.12299 2.00601 1.07253 1.88419C1.02207 1.76237 0.996094 1.6318 0.996094 1.49994C0.996094 1.36808 1.02207 1.23751 1.07253 1.11569C1.12299 0.993869 1.19695 0.883179 1.29019 0.789941C1.38342 0.696702 1.49411 0.622741 1.61594 0.572281C1.73776 0.521821 1.86833 0.49585 2.00019 0.49585C2.13204 0.49585 2.26261 0.521821 2.38444 0.572281C2.50626 0.622741 2.61695 0.696702 2.71019 0.789941L6.00019 4.09994L9.30019 0.919941C9.39218 0.817651 9.50428 0.735442 9.6295 0.678456C9.75471 0.62147 9.89033 0.590933 10.0279 0.588754C10.1654 0.586574 10.302 0.6128 10.4289 0.665791C10.5559 0.718782 10.6705 0.797398 10.7657 0.896723C10.8609 0.996047 10.9346 1.11394 10.9821 1.24304C11.0297 1.37213 11.0501 1.50965 11.042 1.64698C11.034 1.78432 10.9977 1.91852 10.9355 2.0412C10.8732 2.16387 10.7863 2.27238 10.6802 2.35994L6.68019 6.21994C6.49731 6.39626 6.25419 6.49637 6.00019 6.49994Z" fill="#999EB2"/>
</svg>
