<svg width="32" height="32" viewBox="0 0 32 32" fill="none" xmlns="http://www.w3.org/2000/svg">
<circle r="16" transform="matrix(1 0 0 -1 16 16)" fill="#EFF2F6"/>
<path d="M24.081 16.0001C24.0811 16.131 24.0554 16.2607 24.0053 16.3818C23.9553 16.5028 23.8818 16.6128 23.7892 16.7054C23.6966 16.798 23.5867 16.8714 23.4656 16.9215C23.3446 16.9715 23.2149 16.9972 23.0839 16.9971L16.9969 16.9971L16.9969 23.0842C16.9969 23.3486 16.8918 23.6022 16.7048 23.7892C16.5179 23.9761 16.2643 24.0812 15.9998 24.0812C15.7354 24.0812 15.4818 23.9761 15.2948 23.7892C15.2023 23.6966 15.1288 23.5867 15.0787 23.4657C15.0286 23.3447 15.0028 23.2151 15.0028 23.0842L15.0028 16.9971L8.91574 16.9971C8.65131 16.9971 8.39772 16.892 8.21074 16.7051C8.02376 16.5181 7.91872 16.2645 7.91872 16.0001C7.91872 15.7356 8.02376 15.482 8.21074 15.2951C8.39771 15.1081 8.65131 15.003 8.91574 15.003H15.0028L15.0028 8.91596C15.0028 8.78503 15.0286 8.65538 15.0787 8.53442C15.1288 8.41346 15.2023 8.30355 15.2948 8.21096C15.3874 8.11838 15.4973 8.04494 15.6183 7.99484C15.7393 7.94473 15.8689 7.91894 15.9998 7.91894C16.1308 7.91894 16.2604 7.94473 16.3814 7.99484C16.5023 8.04494 16.6123 8.11838 16.7048 8.21096C16.7974 8.30355 16.8709 8.41346 16.921 8.53442C16.9711 8.65539 16.9969 8.78503 16.9969 8.91596L16.9969 15.003L23.0839 15.003C23.6213 15.003 24.0739 15.4556 24.081 16.0001Z" fill="#18214D"/>
</svg>
