<svg xmlns="http://www.w3.org/2000/svg" xmlns:xlink="http://www.w3.org/1999/xlink" width="20" height="20" viewBox="0 0 20 20">
    <defs>
        <path id="a" d="M10.01 7.978c-1.1 0-1.999.9-1.999 1.998 0 1.1.9 1.998 1.998 1.998 1.1 0 1.998-.899 1.998-1.998s-.899-1.998-1.998-1.998zm9.978 1.96v-.087a.802.802 0 0 0-.213-.437c-.637-.8-1.398-1.51-2.173-2.16-1.66-1.399-3.571-2.573-5.657-3.047a8.966 8.966 0 0 0-3.647-.038c-1.111.212-2.185.65-3.184 1.186-1.574.85-2.997 2.011-4.246 3.322-.225.238-.45.487-.662.75a.87.87 0 0 0 0 1.124c.637.799 1.399 1.51 2.173 2.16 1.661 1.399 3.572 2.573 5.657 3.047 1.212.275 2.435.275 3.66.05 1.11-.212 2.172-.65 3.171-1.186 1.574-.85 2.998-2.01 4.246-3.322.225-.237.462-.487.675-.75a.955.955 0 0 0 .212-.437V9.99l-.012-.05zm-9.979 4.034a3.992 3.992 0 0 1-3.996-3.996A3.992 3.992 0 0 1 10.01 5.98a3.992 3.992 0 0 1 3.997 3.996 4 4 0 0 1-3.997 3.996z"/>
    </defs>
    <g fill="none" fill-rule="evenodd">
        <mask id="b" fill="#fff">
            <use xlink:href="#a"/>
        </mask>
        <use fill="#C5C5C5" fill-rule="nonzero" xlink:href="#a"/>
        <g fill="#F2C801" mask="url(#b)">
            <path d="M0 0h41v42H0z"/>
        </g>
    </g>
</svg>
